<svg xmlns="http://www.w3.org/2000/svg" viewBox="0 0 524.254 627.344" fill="currentColor" role="img" aria-label="Glagolitic Slovo glyph" preserveAspectRatio="xMidYMid meet">
  <path d="M 210.1233,617.74261 C 210.1233,616.9724 230.87496,576.72606 256.23803,528.30617 C 281.60109,479.88629 302.35276,439.39247 302.35276,438.31979 C 302.35276,437.24713 295.99343,434.80766 288.22085,432.89872 C 257.35201,425.3174 237.54502,413.02826 202.24378,379.55467 C 165.45796,344.67362 146.87074,319.04111 135.24327,287.15895 C 129.22871,270.66716 128.33986,262.7934 128.33986,226.00402 C 128.33996,189.12402 129.21841,181.38151 135.27909,164.84909 C 154.19962,113.23695 195.96838,69.685892 253.26293,41.830546 C 296.50398,20.807663 342.48198,11.798645 393.09471,14.431538 C 435.04934,16.614096 465.98253,24.485112 503.17508,42.441861 C 588.62109,83.695722 632.59386,146.26481 632.59386,226.59263 C 632.59386,282.86879 617.01819,322.07286 579.25563,360.84523 C 542.66349,398.41584 510.41691,419.46679 473.42356,429.93369 C 463.60566,432.71158 455.81308,436.12334 456.10683,437.51533 C 456.40069,438.90739 474.80932,479.65774 497.01506,528.07178 C 519.2209,576.48586 537.3892,616.78256 537.3892,617.62006 C 537.3892,618.45762 463.75435,619.14285 373.7562,619.14285 C 283.75815,619.14285 210.1233,618.51272 210.1233,617.74258 L 210.1233,617.74261 z M 445.21087,579.10093 C 445.34156,573.51795 378.0852,427.36824 376.23418,429.21297 C 374.4925,430.94878 323.74107,539.26056 309.41298,571.82059 L 305.24799,581.28504 L 375.20381,581.28504 C 413.67956,581.28504 445.18276,580.30219 445.21087,579.10093 L 445.21087,579.10093 z M 350.67181,341.03354 C 365.78171,311.40252 378.87086,287.15895 379.75898,287.15895 C 380.64701,287.15895 392.58416,310.79437 406.28591,339.68209 C 419.98766,368.56985 432.11152,392.75781 433.228,393.43323 C 438.10316,396.38244 472.74713,376.70896 485.34989,363.83456 C 516.02452,332.49869 524.24049,299.90294 519.58046,228.02985 C 516.63118,182.5446 514.22068,171.80049 501.15798,145.92018 C 476.78103,97.623584 442.40051,69.849084 397.70799,62.347474 C 330.36624,51.044209 269.84981,92.210414 243.93631,166.95041 C 230.06442,206.95983 231.09218,287.76928 245.95997,326.06956 C 259.90611,361.99532 293.18785,393.05794 319.47018,394.6782 C 321.52133,394.80464 335.56212,370.66455 350.67192,341.03354 L 350.67181,341.03354 z" transform="translate(-118.340 -1.799)"/>
</svg>
